<svg xmlns="http://www.w3.org/2000/svg" viewBox="0 0 81.76 166.61"><defs><style>.cls-1,.cls-2,.cls-3,.cls-4{stroke:#000;}.cls-1,.cls-2,.cls-4,.cls-5{stroke-linecap:round;}.cls-1,.cls-2,.cls-5,.cls-6{stroke-linejoin:round;}.cls-1,.cls-2,.cls-3,.cls-4,.cls-5,.cls-6{stroke-width:0.86px;}.cls-2,.cls-3,.cls-4,.cls-5,.cls-6{fill:none;}.cls-3,.cls-4{stroke-miterlimit:10;}.cls-5,.cls-6{stroke:#fff;}</style></defs><g id="Layer_2" data-name="Layer 2"><g id="Layer_1-2" data-name="Layer 1"><path d="M48.43,51.49c1.78,11.94,4.21,29.66,4.32,35.44h-.5L14.19,87h-.7c.21-3.82.52-4.17.78-9.85v0l8.94.45h0c-4.77-.61-11.47-3.8-16.37-7.9-3.57-3-6.18-6.46-6.39-9.76C.27,57.16,1.56,55,2.74,52.56,4.24,49.47,12.89,38.22,15,36.48c2.4-2,10.57-3.18,10.57-3.18a3.48,3.48,0,0,1,1.3-2,.52.52,0,0,1,.15-.07A24.67,24.67,0,0,1,37.13,31a1.9,1.9,0,0,1,.42.18A2.8,2.8,0,0,1,39,33.3s4.93-.2,7.9,1.42a77.71,77.71,0,0,1,11.91,8.77,84.86,84.86,0,0,0-.44-12l5-.37h.15c1.8,6.16,5.79,20.8,3.45,23.14C65.17,56.07,49.94,52,48.43,51.49Zm-29.58-.41c-.48.5-1,1-1.42,1.52a76.93,76.93,0,0,0-5.9,7.16C9.64,62.94,23.25,71.25,26.51,72c0,0,0,.23,0,.6-.07,1.38-.33,4.73-1.23,5,.61.8,4.75,3.68,6.33,3.95,2.3.39,5.14-1.88,6.86-3.28h0a3.77,3.77,0,0,0,3.93-3.56L43.31,56a3.75,3.75,0,0,0-3.56-3.93Z"/><path d="M50.17,160.24c2.09.25,4.08,1.42,3.59,4.09h0v-.05H37.58c.46-2.64-1.52-3.79-3.6-4a20,20,0,0,1-3.12-.66l0-.13c0-.18,0-1.12,0-2.67h8.9C40.59,157,45.81,159.73,50.17,160.24Z"/><path d="M34,160.24c2.08.25,4.06,1.4,3.6,4h0v.05h0v-.05h-23c0-.71,0-3.41-.05-7.5H23.6c.62.14,3.83,1.79,7.26,2.79A20,20,0,0,0,34,160.24Z"/><path class="cls-1" d="M72.24,4.57H56.49A3.83,3.83,0,0,0,52.66,8.4v.39a3.82,3.82,0,0,0,3.83,3.83H72.24a3.83,3.83,0,0,0,3.83-3.83V8.4A3.84,3.84,0,0,0,72.24,4.57Zm-.62,6.68a2.67,2.67,0,1,1,2.67-2.66A2.66,2.66,0,0,1,71.62,11.25Z"/><path d="M39.1,13.1a.42.42,0,1,1-.84.06.42.42,0,0,1,.84-.06Z"/><path d="M33.6,13.25a.4.4,0,0,1-.38.44.42.42,0,0,1-.45-.38.43.43,0,0,1,.39-.45A.42.42,0,0,1,33.6,13.25Z"/><path class="cls-2" d="M23.49,46.63a52.71,52.71,0,0,0-4.64,4.45c-.48.5-1,1-1.42,1.52a76.93,76.93,0,0,0-5.9,7.16C9.64,62.94,23.25,71.25,26.51,72c0,0,0,.23,0,.6-.07,1.38-.33,4.73-1.23,5l-.1,0a10.92,10.92,0,0,1-1.94-.1c-4.77-.61-11.47-3.8-16.37-7.9-3.57-3-6.18-6.46-6.39-9.76C.27,57.16,1.56,55,2.74,52.56,4.24,49.47,12.89,38.22,15,36.48c2.4-2,10.57-3.18,10.57-3.18a3.48,3.48,0,0,1,1.3-2,.52.52,0,0,1,.15-.07A24.67,24.67,0,0,1,37.13,31a1.9,1.9,0,0,1,.42.18A2.8,2.8,0,0,1,39,33.3s4.93-.2,7.9,1.42a77.71,77.71,0,0,1,11.91,8.77c.6.52,1.19,1,1.77,1.58"/><path class="cls-3" d="M38.48,78.29l0,0c-1.72,1.4-4.56,3.67-6.86,3.28-1.58-.27-5.72-3.15-6.33-3.95a.33.33,0,0,1-.07-.13"/><path class="cls-2" d="M14.27,77.15c-.26,5.68-.57,6-.78,9.85h.7l38.06-.07h.5c-.11-5.78-2.54-23.5-4.32-35.44-.46-3.05-.87-5.72-1.2-7.72"/><path class="cls-3" d="M48.34,51.46l.09,0C49.94,52,65.17,56.07,67,54.28c2.34-2.34-1.65-17-3.45-23.14h-.15l-5,.37a84.86,84.86,0,0,1,.44,12v0"/><path class="cls-3" d="M38.24,78.34h-.12c-1.82.08-5.09.09-6.08-.76-.6-.53-.63-2.74.37-3.17.7-.31,2.09-.77,2.58-1.06a1,1,0,0,0-.32-1.89,12.91,12.91,0,0,0-2.32,0c-1.5.18-3.86,1.66-5.84,1.22"/><path class="cls-4" d="M27.71,9.53c.11-.84.24-1.83.44-2.83A9.79,9.79,0,0,1,30,2.15C32.3-.41,34.76.54,36.85,2.7a16.58,16.58,0,0,1,1.64,2,25.08,25.08,0,0,1,3.41,7c.88,3.46-4,11.26-5.41,11.81a2.38,2.38,0,0,1-.52.15c-2.06.38-4.68-1.45-5.56-3.27"/><path class="cls-3" d="M27,31.12c0-5.92-.32-11.3.17-17.21"/><path class="cls-3" d="M35.92,23.45c0,.08,0,.16,0,.24.51,2.4.65,5.38,1.58,7.52"/><path class="cls-4" d="M28.53,10.58a5.7,5.7,0,0,0-.86-1c-2.34-2-3.89,2.45-2.93,3.71a2.24,2.24,0,0,0,2.41.54,2.43,2.43,0,0,0,.54-.22"/><path class="cls-3" d="M38.47,4.72h0c.56,0,8.33-1.63,7.22-3.8C45.07-.32,41,1,36.85,2.7c-3.91,1.62-7.8,3.58-8.7,4a.48.48,0,0,1-.15.07"/><path class="cls-4" d="M34,11a2.72,2.72,0,0,0-2.42.44"/><path class="cls-4" d="M27.22,11.39a2.43,2.43,0,0,1-1.56.62"/><path class="cls-4" d="M39.38,11.17c-.66-.31-2.15-.22-2.42.43-.43,1,.21,3.23.48,4.48.19.85.49,2.5-1,2.06"/><path class="cls-4" d="M34.39,20.27a1.75,1.75,0,0,0,2.72-.19"/><path class="cls-3" d="M30.62,132.55c.09,10.67.22,19.87.27,24.23,0,1.55,0,2.49,0,2.67"/><path class="cls-4" d="M20.67,90.19c.13,4.31-2.87,6.91-6.57,7.94a14.62,14.62,0,0,1-3.11.49"/><path class="cls-2" d="M37.53,164.33l-23,.11v-.16c0-.71,0-3.41-.05-7.5C14.3,144.33,14,119,14.1,98.13c0-3.9,0-7.65.09-11.13v-.06"/><path class="cls-2" d="M36.2,95.24a179,179,0,0,1-5.62,37.3c-2.11,8.51-4.57,16.63-6.93,24.14l0,.1h0c.62.14,3.83,1.79,7.26,2.79a20,20,0,0,0,3.12.66c2.08.25,4.06,1.4,3.6,4a.09.09,0,0,1,0,.05"/><path class="cls-2" d="M52.25,87.11c-.63,27.6-6.67,51.3-12.45,69.67h0c.8.18,6,2.94,10.38,3.45,2.09.25,4.08,1.42,3.59,4.09H37.38"/><polyline class="cls-3" points="40.17 156.78 39.8 156.78 31.04 156.78"/><polyline class="cls-3" points="23.62 156.78 23.61 156.78 14.48 156.78"/><polygon class="cls-2" points="14.49 164.28 14.45 164.28 14.45 166.18 37.53 166.18 37.53 164.33 37.53 164.28 14.49 164.28"/><polygon class="cls-2" points="37.56 164.33 37.56 166.18 53.72 166.18 53.72 164.33 53.72 164.28 37.58 164.28 37.56 164.28 37.56 164.33"/><path class="cls-3" d="M23.21,77.58l-8.94-.45-4-.21A3.75,3.75,0,0,1,6.66,73l.16-3.3"/><path class="cls-3" d="M18.7,51.07h.15l20.9,1A3.75,3.75,0,0,1,43.31,56l-.93,18.72a3.77,3.77,0,0,1-3.93,3.56h0l-.32,0-.24,0"/><path class="cls-3" d="M17.43,52.6l21,1a3.33,3.33,0,0,1,3.17,3.48l-.82,16.56-.2,3.88"/><path class="cls-4" d="M58.27,31.49c-1.75-.2-4.68-4.6-1.57-6.33A4.9,4.9,0,0,1,58,24.69c.28-.07.66-.16,1.05-.22.83-.14,1.74-.13,2.06.65a.81.81,0,0,1-.3,1.1,6.22,6.22,0,0,1-1.28.43c-.54.12-1,.52-.85.56a2.12,2.12,0,0,1,1.41,1.3,4,4,0,0,1,.26.69"/><path class="cls-4" d="M56.62,25c-.43-1.23-2.07-8.44-.62-8.79,1.3-.31,1.64,2.58,2.45,6,.16.68.34,1.38.55,2.08"/><path class="cls-4" d="M58.46,22.27c-.1-1.32,2-1.45,2.39-.48a9.17,9.17,0,0,1,.38,1.08c.53,1.84.59,3.88.06,4.93a1.1,1.1,0,0,1-1.07.69"/><path class="cls-4" d="M61.24,22.87a1,1,0,0,1,2-.54c.7,2.74.58,4.56.1,5.4a1.18,1.18,0,0,1-.3.38,1.12,1.12,0,0,1-1.56-.3"/><path class="cls-4" d="M63.38,31.11a6.56,6.56,0,0,0,0-3.35"/><path class="cls-5" d="M13.24,62.39c4,4.31,11.35,8.82,13.74,9.41,0,0-.14,6.36-1.53,6.41-4,.17-10.37-2.08-15.83-5.51"/><path class="cls-6" d="M23.91,156.86c1.39.53,6.05,2.87,10,3.34,2.09.25,3.62,1,3.59,4.37"/><line class="cls-2" x1="75.81" y1="3.51" x2="77.69" y2="1.05"/><line class="cls-2" x1="77.84" y1="5.82" x2="80.42" y2="4.46"/><line class="cls-2" x1="78.42" y1="8.42" x2="81.33" y2="8.42"/></g></g></svg>