<svg xmlns="http://www.w3.org/2000/svg" viewBox="0 0 345.33 403.65"><defs><style>.cls-1,.cls-12,.cls-9{fill:#fff;}.cls-10,.cls-11,.cls-13,.cls-14,.cls-2,.cls-4,.cls-5,.cls-6,.cls-7{fill:none;}.cls-11,.cls-12,.cls-2,.cls-5,.cls-7,.cls-8,.cls-9{stroke:#010101;}.cls-12,.cls-13,.cls-14,.cls-2,.cls-4,.cls-5,.cls-8{stroke-miterlimit:10;}.cls-11,.cls-12,.cls-13,.cls-14,.cls-2,.cls-4,.cls-5,.cls-6,.cls-7,.cls-8,.cls-9{stroke-width:0.86px;}.cls-3,.cls-8{fill:#010101;}.cls-13,.cls-14,.cls-4,.cls-6{stroke:#fff;}.cls-14,.cls-5,.cls-6,.cls-7,.cls-9{stroke-linecap:round;}.cls-11,.cls-6,.cls-7,.cls-9{stroke-linejoin:round;}.cls-13{stroke-linecap:square;}</style></defs><g id="Layer_1" data-name="Layer 1"><path class="cls-1" d="M310.06,313.1a.08.08,0,0,1,0,0c.11,2.73.21,5.73.32,9.06.05,1.66.1,3.41.15,5.23.2,7.33.41,16.05.68,26.53,0,.62,0,1.25,0,1.88.33,12.57.74,27.6,1.32,45.66h-.51l-25.24-.05c-3-17.26-6.37-32.57-9.63-45.63-3.12-12.48-6.1-22.9-8.41-31h0c-.74-2.61-1.72-6.07-2.07-7.33H212.17c-1.2,0-2.37,0-3.52,0-17.8-.58-28-10.38-33.72-23.41-5.49-12.58-6.74-28.18-6.48-41.43l44-.23h.31c1.47,0,.74.25,2.52.25l36.93-.46,11.41-.06c1.25,0,2.48,0,3.68,0,62.44,0,63.65,9.1,76.14,40.17.78,1.95,4.85,12.59,9.66,25.19,4.3,11.27,9.18,24.1,12.83,33.67h0l1.77,4.62c2,5.33,3.41,9,3.66,9.63a.82.82,0,0,1,0,.11l-22,11.75c-3.56-5.54-8.68-13.33-13.81-21.49-5-7.93-10.22-16.35-14.7-23.77-4.93-8.15-9-15.11-10.8-18.92Z" transform="translate(-88.18 -37.25)"/><path class="cls-2" d="M312.62,402.43c0-.24,0-.48,0-.71v-.22c-.58-18.06-1-33.09-1.32-45.66,0-.63,0-1.26,0-1.88-.27-10.48-.48-19.2-.68-26.53-.05-1.82-.1-3.57-.15-5.23-.11-3.33-.21-6.33-.32-9.06a.08.08,0,0,0,0,0c-.25-6.08-.54-10.73-1-14.44C306.44,275,289.89,259.31,252,254.2" transform="translate(-88.18 -37.25)"/><path class="cls-2" d="M269.49,327.28l-.69-2.43c-.74-2.61-1.72-6.07-2.07-7.33H212.17c-1.2,0-2.37,0-3.52,0-17.8-.58-28-10.38-33.72-23.41-5.49-12.58-6.74-28.18-6.48-41.43a186.62,186.62,0,0,1,2.39-26.11c.18-1.12.32-1.83.36-2a.42.42,0,0,0,0-.07" transform="translate(-88.18 -37.25)"/><path class="cls-2" d="M312.08,401.51l-25.24-.05c-3-17.26-6.37-32.57-9.63-45.63-3.12-12.48-6.1-22.9-8.41-31" transform="translate(-88.18 -37.25)"/><line class="cls-2" x1="124.58" y1="215.19" x2="128.97" y2="215.17"/><polyline class="cls-2" points="80.22 215.43 80.27 215.43 124.28 215.19"/><path class="cls-2" d="M212.46,252.44h.31c1.47,0,.74.25,2.52.25l36.93-.46,11.41-.06c1.25,0,2.48,0,3.68,0,62.44,0,63.65,9.1,76.14,40.17.78,1.95,4.85,12.59,9.66,25.19,4.3,11.27,9.18,24.1,12.83,33.67a.08.08,0,0,0,0,.05" transform="translate(-88.18 -37.25)"/><path class="cls-2" d="M310.06,313.09h0c1.84,3.81,5.87,10.77,10.8,18.92,4.48,7.42,9.71,15.84,14.7,23.77,5.13,8.16,10.25,15.95,13.81,21.49l22-11.75a.82.82,0,0,0,0-.11c-.25-.67-1.63-4.3-3.66-9.63l-1.77-4.62" transform="translate(-88.18 -37.25)"/><line class="cls-2" x1="223.07" y1="343.25" x2="262.02" y2="343.25"/><polyline class="cls-2" points="309.76 343.25 326.65 343.25 326.65 365.89 18.77 365.89 18.77 343.25 193.39 343.25"/><polyline class="cls-2" points="264.39 280.12 344.89 280.12 344.89 403.22 0.43 403.22 0.43 280.12 178.4 280.12"/><circle class="cls-2" cx="44.28" cy="292.14" r="4.5"/><circle class="cls-2" cx="28.42" cy="292.14" r="4.5"/><circle class="cls-2" cx="12.56" cy="292.14" r="4.5"/><line class="cls-2" x1="0.34" y1="303.75" x2="184.24" y2="303.75"/><path class="cls-3" d="M309.64,327.32l-.2-5.23h0C309.53,323.75,309.59,325.49,309.64,327.32Z" transform="translate(-88.18 -37.25)"/><line class="cls-4" x1="270.42" y1="358.51" x2="304.39" y2="340.22"/><path class="cls-5" d="M189.94,272.61c.32,11.08-6.73,18.09-15.91,21.37a38.82,38.82,0,0,1-11.09,2.15" transform="translate(-88.18 -37.25)"/><path class="cls-6" d="M286,422.88" transform="translate(-88.18 -37.25)"/><path class="cls-7" d="M370.9,365.35c.83-.24,3.62-.39,7.38-.72,6.27-.55,15.23-1.61,22.33-4.43,4.3-1.71,9.16-1.93,12.2,1.53a10.16,10.16,0,0,1,1.9,3.34,2,2,0,0,1,.09.26.69.69,0,0,1,.05.13l-55.74,30.26-10.31-18Z" transform="translate(-88.18 -37.25)"/><path class="cls-4" d="M367.24,397.13" transform="translate(-88.18 -37.25)"/><path class="cls-3" d="M414.8,365.33l-56.68,30.61,0-.05-10-18.52.16-.29,22.26-11.61a.82.82,0,0,0,0-.11h.43c.83-.24,3.62-.39,7.38-.72,6.27-.55,15.23-1.61,22.33-4.43,4.3-1.71,9.16-1.93,12.2,1.53a10.16,10.16,0,0,1,1.9,3.34A2,2,0,0,1,414.8,365.33Z" transform="translate(-88.18 -37.25)"/><path class="cls-8" d="M311.7,401.61h0c.84.18,3.37,1.37,6.84,2.87,5.77,2.49,14.16,5.82,21.75,6.71,4.59.54,9,2.66,10,7.14a10.2,10.2,0,0,1,.09,3.85,2.51,2.51,0,0,1,0,.27H285.92l0-.06V401.34l25.24.06.51,0Z" transform="translate(-88.18 -37.25)"/><polygon class="cls-7" points="197.74 385.63 197.74 390.5 262.28 390.5 262.28 385.2 262.18 385.2 197.76 385.2 197.74 385.2 197.74 385.63"/><polygon class="cls-9" points="270.13 359.08 272.44 363.36 329.22 332.7 326.71 328.03 326.62 328.08 269.94 358.69 269.92 358.7 270.13 359.08"/><line class="cls-2" x1="273.22" y1="303.75" x2="344.3" y2="303.75"/><line class="cls-2" x1="221.94" y1="303.75" x2="237.03" y2="303.75"/></g><g id="Layer_2" data-name="Layer 2"><path class="cls-3" d="M222.14,267.32l-54.34-.09h-.15a119.62,119.62,0,0,1,1.27-26.06l0-.14c12.36,3.7,29.7,7.6,50.46,11.92l2.9.6h0c4.48,1.1,10,.65,12.44,6.58.21.51.46,1.4.77,2.39l-.55.1-9.93.44a2.9,2.9,0,0,0-2.54,4.1Z" transform="translate(-88.18 -37.25)"/><path class="cls-3" d="M226.57,236.24c-4.51,2.73-7.69,8.89-7,16l-.11.67c-20.76-4.32-38.1-8.22-50.46-11.92-12.06-3.6-19.38-7-20.52-10.47-8.81-26.73,10.61-80.83,20.81-90.86,5.92-5.82,19.61-10.35,34.36-13.22,0,0,1.2-3.5,3.39-4.84a3,3,0,0,1,.63-.27c3.71-1.21,18.63-2.43,27.16-.08a8.85,8.85,0,0,1,1.51.57c2.08,1,3.63,2.82,3.75,4.64,0,0,27.59,3.11,32.85,9.65,6.24,7.76,17.15,34.48,26.23,75.5L265,212.89a8.65,8.65,0,0,0-8.05,7.55l-5.33,34.21c-.51-4.74-.86-10.45-5.9-12S233.91,238.9,226.57,236.24Z" transform="translate(-88.18 -37.25)"/><path class="cls-10" d="M396.52,421.69v5.19H333.31v-4.76h.05l63-.29a.59.59,0,0,0,0-.14Z" transform="translate(-88.18 -37.25)"/><path class="cls-11" d="M218.53,252c-19.72-3.63-35.53-7-54.53-13-5-2-9-4-13-6-2-1-3-4-4-6-3-18,46.2-97.95,56.69-100.72,2.94-9.47,20.4-4.66,31.1-5,4-.12,4.25,4.33,6.25,5.33,9,4,20,1.37,29,6.37,5,3,8,9,10,14,8,21,15,41,19.21,63.43" transform="translate(-88.18 -37.25)"/><path class="cls-12" d="M351.57,220.11,343,268.23a8.66,8.66,0,0,1-7.81,7.33L258,280.41c-5.46.34-9.82-4.84-8.92-10.61l7.8-50.17a8.67,8.67,0,0,1,8.06-7.55l77.93-2.81C348.36,209.08,352.59,214.37,351.57,220.11Z" transform="translate(-88.18 -37.25)"/><path class="cls-2" d="M254.52,279.9l-30.43-12.07a2.88,2.88,0,0,1,1-5.56l9.93-.45" transform="translate(-88.18 -37.25)"/><line class="cls-2" x1="80.02" y1="229.17" x2="133.96" y2="229.26"/><path class="cls-5" d="M244.55,248c2,3.6,5.31,19.78-3,17.47" transform="translate(-88.18 -37.25)"/><path class="cls-5" d="M246.51,264c0,.47,3,1.52,3.51-.29" transform="translate(-88.18 -37.25)"/><path class="cls-13" d="M273.53,209.62c-1-6.54-7.29-27.39-10.87-41.55" transform="translate(-88.18 -37.25)"/><path class="cls-4" d="M219.42,253c-.14-8.71,2.82-14.73,7.85-17.61" transform="translate(-88.18 -37.25)"/><path class="cls-5" d="M209.58,62.53c.85-6.2,2-15.36,6.28-20.17,13.84-15.46,29.87,16,32.46,26.17,2.41,9.45-11,30.74-14.77,32.26-5.77,2.31-14-3.14-16.59-8.53" transform="translate(-88.18 -37.25)"/><path class="cls-2" d="M207.73,121.49a275.22,275.22,0,0,1,.38-47" transform="translate(-88.18 -37.25)"/><path class="cls-2" d="M232,100.53c1.9,7,2.29,15.85,5.63,22.16" transform="translate(-88.18 -37.25)"/><path class="cls-5" d="M211.81,65.39c-7.63-11.25-13.27,3.54-10.33,7.4,1.89,2.5,5.92,2,8.05.87" transform="translate(-88.18 -37.25)"/><path class="cls-2" d="M239,49.4c.94,0,22.85-4.36,19.76-10.39-3.51-6.85-45.73,14.84-48.34,16" transform="translate(-88.18 -37.25)"/><path class="cls-5" d="M208.25,67.59A6.63,6.63,0,0,1,204,69.3" transform="translate(-88.18 -37.25)"/><circle class="cls-3" cx="137.42" cy="37.56" r="1.14"/><circle class="cls-3" cx="151.24" cy="37.56" r="1.14"/><path class="cls-5" d="M235.1,71.42c-1.34,2.83.24,7.26.74,10.19.34,2,.84,5.85-3.2,4.57" transform="translate(-88.18 -37.25)"/><path class="cls-5" d="M221.28,88.17c.48,3.79,5.95,3.81,7,2.68" transform="translate(-88.18 -37.25)"/><path class="cls-14" d="M187.16,169.07c-5.83,18.34-13.08,41.52-11.61,44.39,1.3,2.52,29.76,13.56,51.91,21.61" transform="translate(-88.18 -37.25)"/><path class="cls-5" d="M235.11,71.42s4.23-2.63,6.66,0" transform="translate(-88.18 -37.25)"/><path class="cls-7" d="M222,71.42a7.19,7.19,0,0,1,6.66,0" transform="translate(-88.18 -37.25)"/><path class="cls-5" d="M238.11,250.06a26.78,26.78,0,0,1,3.15,8.88c.3,1.8.87,5.59-.69,6.87-3.7,3-5-4.53-5.81-6.48-2.43-5.92-11.2-5.34-15.68-6.45" transform="translate(-88.18 -37.25)"/><path class="cls-13" d="M219.53,252.29c-22.21-3.07-39.81-8.37-53.26-11.51" transform="translate(-88.18 -37.25)"/></g></svg>