<?xml version="1.0" encoding="utf-8"?>
<!-- Generator: Adobe Illustrator 26.0.3, SVG Export Plug-In . SVG Version: 6.00 Build 0)  -->
<svg version="1.1" id="Layer_1" xmlns="http://www.w3.org/2000/svg" xmlns:xlink="http://www.w3.org/1999/xlink" x="0px" y="0px"
	 viewBox="0 0 16 16" style="enable-background:new 0 0 16 16;" xml:space="preserve">
<style type="text/css">
	.st0{fill:#444444;}
</style>
<path class="st0" d="M9.4,3.1C9.2,4.4,9,4.7,9,6c0,0.8,1.5,1.5,1.5,1.5v1c0,0-1.5,0.7-1.5,1.5c0,1.3,0.2,1.6,0.4,2.9
	C9.7,15,8.6,16,7.6,16s-2.1,0-2.1,0v-2c0,0,1.8,0.2,1.8-1c0-0.9-0.2-0.9-0.4-2.9C6.8,9.2,7.4,8.5,8,8C7.4,7.5,6.8,6.9,6.9,6
	c0.2-2,0.4-2,0.4-2.9C7.3,1.9,5.5,2,5.5,2V0c0,0,1,0,2.1,0S9.7,1,9.4,3.1z"/>
</svg>
